<?xml version="1.0" encoding="UTF-8" standalone="no"?>
<svg
   xmlns:dc="http://purl.org/dc/elements/1.1/"
   xmlns:cc="http://creativecommons.org/ns#"
   xmlns:rdf="http://www.w3.org/1999/02/22-rdf-syntax-ns#"
   xmlns:svg="http://www.w3.org/2000/svg"
   xmlns="http://www.w3.org/2000/svg"
   xmlns:sodipodi="http://sodipodi.sourceforge.net/DTD/sodipodi-0.dtd"
   xmlns:inkscape="http://www.inkscape.org/namespaces/inkscape"
   inkscape:version="1.0 (4035a4fb49, 2020-05-01)"
   sodipodi:docname="fav.svg"
   id="svg2083"
   preserveAspectRatio="xMidYMid meet"
   viewBox="0 0 471.000000 471.000000"
   height="471.000000pt"
   width="471.000000pt"
   version="1.0">
  <metadata
     id="metadata2089">
    <rdf:RDF>
      <cc:Work
         rdf:about="">
        <dc:format>image/svg+xml</dc:format>
        <dc:type
           rdf:resource="http://purl.org/dc/dcmitype/StillImage" />
      </cc:Work>
    </rdf:RDF>
  </metadata>
  <defs
     id="defs2087" />
  <sodipodi:namedview
     inkscape:current-layer="svg2083"
     inkscape:window-maximized="0"
     inkscape:window-y="0"
     inkscape:window-x="0"
     inkscape:cy="373.10588"
     inkscape:cx="314"
     inkscape:zoom="1.3535032"
     showgrid="false"
     id="namedview2085"
     inkscape:window-height="885"
     inkscape:window-width="1848"
     inkscape:pageshadow="2"
     inkscape:pageopacity="0"
     guidetolerance="10"
     gridtolerance="10"
     objecttolerance="10"
     borderopacity="1"
     bordercolor="#666666"
     pagecolor="#ffffff" />
  <path
     d="M 206.6,1.1 C 159.6,6 109.8,30.1 73.1,65.5 52.7,85.2 37.4,105.6 25.3,129.6 1.6,176.2 -5.9,229.5 4.1,279.5 c 18.6,92.9 93,168.9 182.9,186.9 34.7,7 73.5,5.9 107,-2.8 42.3,-11 80.3,-33.3 110.7,-65 34.8,-36.1 55.7,-78.3 64,-129.1 2.5,-15.5 2.5,-52.4 0,-68.4 C 457.6,130.9 419.2,72.4 359.7,35 328.9,15.7 296.5,5 256.1,1 244.2,-0.2 218.2,-0.1 206.6,1.1 Z m 123.7,124.1 c -0.3,4.9 -8.4,23.2 -13.1,29.3 -2.9,3.9 -4.5,5.1 -6.9,5.3 -2.8,0.3 -3.3,-0.1 -3.9,-2.3 -1.9,-7.7 9.2,-29.2 18,-34.6 4.4,-2.7 6.1,-2.1 5.9,2.3 z m -17.5,46.9 c 3.8,1.3 4.4,3.7 2.2,8.6 -3.3,7.4 -13.4,14.6 -27.3,19.4 -9.2,3.2 -14.5,3.7 -15.4,1.4 -1.1,-3 2.9,-10.6 8.3,-16 5.8,-5.7 17.3,-12 24.5,-13.4 2.4,-0.5 4.4,-0.9 4.5,-1 0.1,-0.1 1.5,0.4 3.2,1 z m -7.4,41.8 c 6,5 -4.7,10.1 -31.1,15.2 -6.8,1.2 -12.3,2.6 -12.3,2.9 0,0.3 8.8,1.2 19.6,1.9 10.8,0.7 20.9,1.7 22.3,2.2 l 2.6,1 -4,2.5 c -8.3,5 -21,7.6 -45.6,9.5 -20,1.4 -38.9,0 -38.9,-3 0,-2.8 9.6,-7.4 19.9,-9.6 13.4,-2.8 15.9,-4.7 10.9,-8.3 -3,-2.2 -2.2,-5 2,-7.1 12.9,-6.6 49.6,-11.4 54.6,-7.2 z m 33.8,44.1 c -4.9,4.1 -20.1,7.5 -85.7,19.5 -51.5,9.4 -57.6,11.2 -89.5,26.5 -29.4,14.1 -33,14.3 -19.2,1 8.3,-8 27.3,-22.9 38.7,-30.2 13.6,-8.9 24,-11.9 47.5,-13.8 15,-1.3 86.1,-4.7 101,-4.8 l 9.5,-0.1 z m -13.3,20.6 c -1.3,1.4 -4.6,3.7 -7.3,5.1 -5.1,2.6 -15.6,4.3 -15.6,2.6 0,-1.7 19.3,-10.1 23.4,-10.2 1.8,-0.1 1.7,0.1 -0.5,2.5 z M 274,288.9 c 0,1.3 -11.2,5.8 -32.2,13 -16.2,5.6 -25.5,9.3 -45.4,17.9 -15.3,6.7 -28.4,5.4 -28.4,-2.8 0,-7.9 13.8,-12.9 57,-20.6 14,-2.5 29.6,-5.3 34.5,-6.4 10.2,-2.1 14.5,-2.4 14.5,-1.1 z m 11.9,13.4 c 0.9,0.8 1.2,2.6 0.8,6 -0.8,8.5 -6.5,13.7 -17.3,15.7 -7.1,1.4 -20.3,0.8 -25.1,-1.1 l -2.8,-1.1 4.6,-4.1 c 5.2,-4.8 20.6,-13.2 28.8,-15.8 5.6,-1.8 8.4,-1.7 11,0.4 z M 136,332.6 c 2.5,6.4 0.4,15.4 -4.5,19.2 -7.6,6 -12.1,-0.5 -7.4,-10.8 4.6,-10.1 9.9,-13.8 11.9,-8.4 z m 159.9,6.4 c 4,4.9 7,9.4 6.6,10 -0.8,1.3 -10.4,1.3 -14.4,-0.1 -3.6,-1.3 -4.7,-4 -3.7,-10.2 0.6,-3.5 2.9,-8.7 3.9,-8.7 0.2,0 3.6,4 7.6,9 z"
     id="path2079"
     style="fill:#393939;stroke:none;stroke-width:0.1" />
</svg>
