<?xml version="1.0" standalone="no"?>
<!DOCTYPE svg PUBLIC "-//W3C//DTD SVG 20010904//EN" "http://www.w3.org/TR/2001/REC-SVG-20010904/DTD/svg10.dtd">
<svg version="1.0" xmlns="http://www.w3.org/2000/svg" width="471.000000pt" height="471.000000pt" viewBox="0 0 471.000000 471.000000" preserveAspectRatio="xMidYMid meet">
<g transform="translate(0.000000,471.000000) scale(0.100000,-0.100000)" fill="#393939" stroke="none">
<path d="M2066 4699 c-470 -49 -968 -290 -1335 -644 -204 -197 -357 -401 -478
-641 -237 -466 -312 -999 -212 -1499 186 -929 930 -1689 1829 -1869 347 -70
735 -59 1070 28 423 110 803 333 1107 650 348 361 557 783 640 1291 25 155 25
524 0 684 -111 702 -495 1287 -1090 1661 -308 193 -632 300 -1036 340 -119 12
-379 11 -495 -1z
m1237 -1241 c-3 -49 -84 -232 -131 -293 -29 -39 -45 -51 -69
-53 -28 -3 -33 1 -39 23 -19 77 92 292 180 346 44 27 61 21 59 -23z 
m-175
-469 c38 -13 44 -37 22 -86 -33 -74 -134 -146 -273 -194 -92 -32 -145 -37
-154 -14 -11 30 29 106 83 160 58 57 173 120 245 134 24 5 44 9 45 10 1 1 15 -4 32 -10z
m-74 -418  c60 -50 -47 -101 -311 -152 -68 -12 -123 -26 -123 -29 0
-3 88 -12 196 -19 108 -7 209 -17 223 -22 l26 -10 -40 -25 c-83 -50 -210 -76
-456 -95 -200 -14 -389 0 -389 30 0 28 96 74 199 96 134 28 159 47 109 83 -30
22 -22 50 20 71 129 66 496 114 546 72z
m338 -441 
c-49 -41 -201 -75 -857
-195 -515 -94 -576 -112 -895 -265 -294 -141 -330 -143 -192 -10 83 80 273
229 387 302 136 89 240 119 475 138 150 13 861 47 1010 48 l95 1 -23 -19z
m-133 -206 
c-13 -14 -46 -37 -73 -51 -51 -26 -156 -43 -156 -26 0 17 193 101
234 102 18 1 17 -1 -5 -25z
m-519 -103 c0 -13 -112 -58 -322 -130 -162 -56 -255 -93 -454 -179 -153 -67 -284 -54 -284 28 0 79 138 129 570 206 140 25 296 53 345 64 102 21 145 24 145 11z
m119 -134 c9 -8 12 -26 8 -60 -8 -85 -65
-137 -173 -157 -71 -14 -203 -8 -251 11 l-28 11 46 41 c52 48 206 132 288 158
56 18 84 17 110 -4z
m-1499 -303 c25 -64 4 -154 -45 -192 -76 -60 -121 5 -74
108 46 101 99 138 119 84z
m1599 -64 c40 -49 70 -94 66 -100 -8 -13 -104 -13
-144 1 -36 13 -47 40 -37 102 6 35 29 87 39 87 2 0 36 -40 76 -90z"/>
</g></svg>
