<svg xmlns="http://www.w3.org/2000/svg" id="svg14" height="400" width="400"><g id="g6"><circle cy="200" cx="200" r="200" fill="#393939"/></g><g transform="matrix(1.32615 0 0 1.34257 -188.689 -83.877)" id="g12"><path stroke="null" d="M357.312 122.528c-.246 3.345-6.338 15.802-9.852 19.944-2.169 2.649-3.36 3.46-5.14 3.584-2.078.19-2.447-.085-2.881-1.59-1.373-5.27 6.96-19.897 13.51-23.54 3.274-1.821 4.532-1.402 4.363 1.602zm-13.198 31.942c2.811.907 3.245 2.55 1.59 5.885-2.481 5.037-10.004 9.903-20.332 13.11-6.836 2.138-10.768 2.452-11.424.876-.802-2.054 2.2-7.225 6.23-10.885 4.326-3.863 12.883-8.107 18.227-9.026 1.782-.329 3.267-.592 3.341-.66.075-.067 1.11.281 2.368.7zm-5.685 28.51c4.425 3.447-3.532 6.875-23.13 10.222-5.047.785-9.131 1.713-9.133 1.917 0 .205 6.519.865 14.523 1.4 8.004.533 15.487 1.268 16.523 1.617l1.923.696-2.978 1.687c-6.177 3.372-15.605 5.082-33.853 6.253-14.835.853-28.841-.2-28.827-2.25.013-1.912 7.153-5.004 14.8-6.453 9.948-1.844 11.81-3.128 8.12-5.613-2.213-1.518-1.607-3.426 1.517-4.839 9.596-4.441 36.828-7.53 40.515-4.636zm24.85 30.295c-3.652 2.775-14.937 5.019-63.63 12.877-38.228 6.155-42.76 7.352-66.483 17.638-21.864 9.479-24.534 9.597-14.24.584 6.192-5.421 20.35-15.5 28.836-20.427 10.126-6.009 17.85-8.004 35.283-9.18 11.127-.811 63.858-2.767 74.905-2.758l7.044-.02zm-9.958 14.001c-.97.95-3.428 2.504-5.436 3.446-3.794 1.75-11.587 2.856-11.579 1.695.008-1.16 14.357-6.799 17.398-6.846 1.335-.059 1.26.077-.383 1.705zm-38.528 6.768c-.006.887-8.331 3.903-23.935 8.713-12.038 3.74-18.95 6.22-33.745 11.991-11.376 4.497-21.082 3.542-21.043-2.059.038-5.395 10.293-8.74 42.358-13.776 10.392-1.635 21.971-3.467 25.61-4.193 7.572-1.382 10.761-1.564 10.755-.676zm8.76 9.213c.663.551.876 1.782.564 4.102-.634 5.801-4.884 9.324-12.901 10.634-5.27.92-15.055.442-18.604-.88l-2.071-.766 3.43-2.777c3.878-3.252 15.336-8.91 21.428-10.643 4.16-1.2 6.235-1.118 8.153.33zM212.27 263.179c1.823 4.384.223 10.52-3.428 13.09-5.663 4.06-8.968-.403-5.435-7.414 3.459-6.875 7.406-9.374 8.863-5.676zm118.521 5.195c2.942 3.368 5.145 6.457 4.846 6.864-.6.884-7.717.835-10.676-.142-2.663-.907-3.466-2.756-2.695-6.986.462-2.387 2.192-5.927 2.933-5.922.148.001 2.65 2.75 5.592 6.186z" fill="#fff"/></g><style></style></svg>