<svg xmlns="http://www.w3.org/2000/svg" viewBox="0 0 471 471" height="628" width="628" version="1.0"><path d="M206.6 1.1c-47 4.9-96.8 29-133.5 64.4-20.4 19.7-35.7 40.1-47.8 64.1C1.6 176.2-5.9 229.5 4.1 279.5c18.6 92.9 93 168.9 182.9 186.9 34.7 7 73.5 5.9 107-2.8 42.3-11 80.3-33.3 110.7-65 34.8-36.1 55.7-78.3 64-129.1 2.5-15.5 2.5-52.4 0-68.4-11.1-70.2-49.5-128.7-109-166.1-30.8-19.3-63.2-30-103.6-34-11.9-1.2-37.9-1.1-49.5.1zm123.7 124.1c-.3 4.9-8.4 23.2-13.1 29.3-2.9 3.9-4.5 5.1-6.9 5.3-2.8.3-3.3-.1-3.9-2.3-1.9-7.7 9.2-29.2 18-34.6 4.4-2.7 6.1-2.1 5.9 2.3zm-17.5 46.9c3.8 1.3 4.4 3.7 2.2 8.6-3.3 7.4-13.4 14.6-27.3 19.4-9.2 3.2-14.5 3.7-15.4 1.4-1.1-3 2.9-10.6 8.3-16 5.8-5.7 17.3-12 24.5-13.4 2.4-.5 4.4-.9 4.5-1 .1-.1 1.5.4 3.2 1zm-7.4 41.8c6 5-4.7 10.1-31.1 15.2-6.8 1.2-12.3 2.6-12.3 2.9 0 .3 8.8 1.2 19.6 1.9s20.9 1.7 22.3 2.2l2.6 1-4 2.5c-8.3 5-21 7.6-45.6 9.5-20 1.4-38.9 0-38.9-3 0-2.8 9.6-7.4 19.9-9.6 13.4-2.8 15.9-4.7 10.9-8.3-3-2.2-2.2-5 2-7.1 12.9-6.6 49.6-11.4 54.6-7.2zm33.8 44.1c-4.9 4.1-20.1 7.5-85.7 19.5-51.5 9.4-57.6 11.2-89.5 26.5-29.4 14.1-33 14.3-19.2 1 8.3-8 27.3-22.9 38.7-30.2 13.6-8.9 24-11.9 47.5-13.8 15-1.3 86.1-4.7 101-4.8l9.5-.1zm-13.3 20.6c-1.3 1.4-4.6 3.7-7.3 5.1-5.1 2.6-15.6 4.3-15.6 2.6 0-1.7 19.3-10.1 23.4-10.2 1.8-.1 1.7.1-.5 2.5zM274 288.9c0 1.3-11.2 5.8-32.2 13-16.2 5.6-25.5 9.3-45.4 17.9-15.3 6.7-28.4 5.4-28.4-2.8 0-7.9 13.8-12.9 57-20.6 14-2.5 29.6-5.3 34.5-6.4 10.2-2.1 14.5-2.4 14.5-1.1zm11.9 13.4c.9.8 1.2 2.6.8 6-.8 8.5-6.5 13.7-17.3 15.7-7.1 1.4-20.3.8-25.1-1.1l-2.8-1.1 4.6-4.1c5.2-4.8 20.6-13.2 28.8-15.8 5.6-1.8 8.4-1.7 11 .4zM136 332.6c2.5 6.4.4 15.4-4.5 19.2-7.6 6-12.1-.5-7.4-10.8 4.6-10.1 9.9-13.8 11.9-8.4zm159.9 6.4c4 4.9 7 9.4 6.6 10-.8 1.3-10.4 1.3-14.4-.1-3.6-1.3-4.7-4-3.7-10.2.6-3.5 2.9-8.7 3.9-8.7.2 0 3.6 4 7.6 9z" fill="#393939" stroke-width=".1"/></svg>