<?xml version="1.0" standalone="no"?>
<!DOCTYPE svg PUBLIC "-//W3C//DTD SVG 20010904//EN"
 "http://www.w3.org/TR/2001/REC-SVG-20010904/DTD/svg10.dtd">
<svg version="1.0" xmlns="http://www.w3.org/2000/svg"
 width="462.000000pt" height="113.000000pt" viewBox="0 0 462.000000 113.000000"
 preserveAspectRatio="xMidYMid meet">

<g transform="translate(0.000000,113.000000) scale(0.100000,-0.100000)"
fill="#393939" stroke="none">
<path d="M440 1114 c-156 -33 -307 -152 -375 -295 -37 -78 -65 -187 -65 -254
0 -136 69 -295 171 -397 219 -221 569 -220 790 1 224 224 224 568 -1 791 -87
87 -148 123 -256 150 -89 23 -172 24 -264 4z m339 -328 c-22 -47 -35 -57 -45
-32 -7 18 21 72 43 85 26 14 27 -1 2 -53z m-16 -72 c12 -13 -15 -46 -48 -60
-69 -28 -85 -12 -36 37 27 27 69 38 84 23z m-32 -95 c25 -13 15 -29 -19 -30
l-27 -1 28 -11 c35 -14 34 -23 -4 -36 -39 -14 -189 -15 -189 -1 0 13 34 30 61
30 17 0 19 3 10 14 -10 12 -6 16 21 24 73 23 93 25 119 11z m76 -114 c-10 -7
-51 -19 -90 -25 -175 -28 -262 -51 -328 -85 -38 -20 -69 -31 -69 -26 0 13 97
98 135 119 28 15 126 24 325 30 40 1 43 0 27 -13z m-21 -50 c-11 -8 -31 -15
-45 -15 -25 1 -25 1 -7 15 11 8 31 15 45 15 25 -1 25 -1 7 -15z m-151 -30
c-80 -38 -164 -68 -197 -72 -33 -4 -38 -2 -38 15 0 24 32 38 125 52 38 6 71
13 74 16 2 2 18 4 35 3 l31 0 -30 -14z m55 -33 c0 -29 -21 -42 -67 -42 -51 0
-55 13 -10 40 41 25 77 26 77 2z m-359 -91 c-14 -24 -41 -28 -41 -5 0 8 5 25
11 36 10 18 13 19 26 5 12 -11 13 -19 4 -36z m383 14 c16 -24 16 -25 -8 -25
-29 0 -39 11 -30 34 9 22 19 20 38 -9z"/>
<path d="M1510 565 l0 -295 56 0 55 0 -3 230 c-2 127 -1 225 1 218 3 -7 35
-110 71 -228 l66 -215 59 0 58 0 73 220 72 220 1 -222 1 -223 55 0 55 0 0 295
0 296 -82 -3 -82 -3 -73 -220 c-40 -121 -73 -222 -73 -225 -1 -5 -94 288 -126
398 l-15 52 -85 0 -84 0 0 -295z"/>
<path d="M2280 565 l0 -295 170 0 170 0 0 50 0 50 -105 0 -105 0 0 79 0 79 78
0 c42 1 85 1 95 1 14 1 17 10 17 51 l0 50 -95 0 -95 0 0 64 0 63 93 1 c50 1
98 1 105 2 8 0 12 17 12 50 l0 50 -170 0 -170 0 0 -295z"/>
<path d="M2680 810 l0 -50 48 -1 c26 -1 61 -2 77 -3 l30 -1 3 -242 2 -243 60
0 60 0 2 243 c2 185 6 242 16 243 6 1 41 2 77 3 l65 1 0 50 0 50 -220 0 -220
0 0 -50z"/>
<path d="M3170 822 c0 -34 4 -40 33 -53 l32 -14 3 -191 2 -190 -35 -17 c-30
-14 -35 -21 -35 -52 l0 -35 130 0 130 0 0 35 c0 31 -5 38 -35 52 l-35 17 0
192 0 193 35 12 c32 12 35 17 35 51 l0 38 -130 0 -130 0 0 -38z"/>
<path d="M3530 566 l0 -296 110 0 c135 0 197 13 257 53 82 56 116 127 115 248
0 88 -18 142 -63 193 -62 70 -118 89 -281 94 l-138 4 0 -296z m286 163 c46
-28 68 -80 68 -164 0 -125 -45 -177 -161 -191 l-63 -7 0 191 c0 190 0 191 23
194 40 7 101 -4 133 -23z"/>
<path d="M4260 858 c0 -2 -45 -132 -100 -288 -55 -156 -100 -288 -100 -292 0
-5 29 -8 65 -8 l64 0 21 70 21 70 107 0 108 0 19 -70 19 -70 68 0 67 0 -64
183 c-35 100 -81 232 -102 292 l-39 110 -77 3 c-42 2 -77 1 -77 0z m109 -195
c50 -165 53 -148 -28 -151 -53 -3 -71 0 -71 10 -1 13 63 238 67 238 1 0 16
-44 32 -97z"/>
<path d="M1510 25 l0 -25 1555 0 1555 0 0 25 0 25 -1555 0 -1555 0 0 -25z"/>
</g>
</svg>
