<?xml version="1.0" encoding="UTF-8" standalone="no"?>
<svg
   xmlns="http://www.w3.org/2000/svg"
   xmlns:sodipodi="http://sodipodi.sourceforge.net/DTD/sodipodi-0.dtd"
   xmlns:inkscape="http://www.inkscape.org/namespaces/inkscape"
   inkscape:version="1.0 (4035a4fb49, 2020-05-01)"
   sodipodi:docname="myCustomSVG.svg"
   id="svg14"
   height="400"
   width="400">

  <g id="g6">
    <title id="title2">background</title>
    <circle
       id="circle4"
       cy="200"
       cx="200"
       r="200"
       style="fill-opacity:1" />
  </g>
  <g
     transform="matrix(1.3261476,0,0,1.3425722,-188.68893,-83.876646)"
     id="g12">
    <title
       id="title8">Layer 1</title>
    <path
       style="fill-opacity:1;stroke-width:0.999749;stroke-miterlimit:4;stroke-dasharray:none"
       stroke="null"
       id="svg_5"
       d="m 357.31162,122.52773 c -0.24569,3.34513 -6.338,15.80216 -9.85159,19.94419 -2.16861,2.64873 -3.36056,3.46008 -5.1409,3.58431 -2.07738,0.19047 -2.44618,-0.0853 -2.88058,-1.59099 -1.37213,-5.26884 6.95961,-19.89599 13.50966,-23.5388 3.27503,-1.8214 4.53258,-1.40285 4.36341,1.60129 z m -13.19736,31.9422 c 2.81119,0.90748 3.24464,2.54975 1.59027,5.88508 -2.48179,5.03715 -10.00422,9.90264 -20.33262,13.10937 -6.83617,2.13817 -10.76802,2.45235 -11.42437,0.87683 -0.80131,-2.05465 2.20041,-7.22479 6.22967,-10.88512 4.32725,-3.86317 12.88338,-8.10676 18.22819,-9.02584 1.78176,-0.32913 3.26648,-0.59202 3.34109,-0.6598 0.0746,-0.0678 1.11022,0.28092 2.36777,0.69948 z m -5.68489,28.51099 c 4.42472,3.44588 -3.53259,6.87401 -23.13005,10.22121 -5.04729,0.78455 -9.1317,1.71239 -9.13312,1.91729 -10e-4,0.2049 6.51872,0.86495 14.52263,1.3987 8.00392,0.53376 15.48742,1.2688 16.52302,1.61752 l 1.92292,0.69639 -2.97751,1.68687 c -6.17745,3.37219 -15.60571,5.08252 -33.85344,6.25342 -14.83487,0.85312 -28.84088,-0.20048 -28.82664,-2.24946 0.0133,-1.91238 7.15268,-5.00467 14.79965,-6.45418 9.9482,-1.84332 11.81075,-3.12812 8.12079,-5.61266 -2.21379,-1.51805 -1.60737,-3.42631 1.51653,-4.83895 9.59553,-4.44127 36.8281,-7.5305 40.51522,-4.63615 z m 24.85031,30.2942 c -3.65238,2.77502 -14.93797,5.01886 -63.63149,12.87669 -38.22729,6.15472 -42.75844,7.35267 -66.48209,17.63806 -21.86442,9.47868 -24.53445,9.59673 -14.23984,0.58404 6.1917,-5.42117 20.34924,-15.49985 28.83599,-20.42695 10.12544,-6.00855 17.85035,-8.00393 35.28253,-9.1805 11.12733,-0.81058 63.85779,-2.76633 74.90529,-2.75784 l 7.04387,-0.0193 z m -9.95857,14.00112 c -0.97048,0.94949 -3.42806,2.50337 -5.43651,3.44564 -3.79354,1.7495 -11.58643,2.85647 -11.57836,1.69538 0.008,-1.16108 14.35719,-6.79876 17.39745,-6.84593 1.33501,-0.059 1.25992,0.0771 -0.38258,1.70491 z m -38.52812,6.76735 c -0.006,0.88789 -8.33134,3.90364 -23.93515,8.71296 -12.03745,3.74127 -18.95014,6.22042 -33.74504,11.9916 -11.3754,4.4972 -21.08171,3.54179 -21.04278,-2.05875 0.0375,-5.39565 10.29272,-8.73949 42.35823,-13.7759 10.39162,-1.63533 21.97092,-3.46731 25.60906,-4.19335 7.57236,-1.38172 10.76185,-1.56445 10.75568,-0.67656 z m 8.75917,9.21344 c 0.66347,0.55103 0.87734,1.78197 0.56464,4.10208 -0.63349,5.80132 -4.88422,9.32351 -12.90095,10.63384 -5.27066,0.9196 -15.05444,0.44177 -18.60419,-0.88066 l -2.07073,-0.76572 3.42996,-2.77657 c 3.87812,-3.25156 15.33573,-8.90934 21.42764,-10.64286 4.16045,-1.20053 6.23593,-1.1178 8.15363,0.32989 z m -111.28135,19.92214 c 1.82314,4.38405 0.22345,10.52016 -3.4275,13.09028 -5.66321,4.05879 -8.9687,-0.40385 -5.43517,-7.41446 3.45844,-6.87453 7.40549,-9.37429 8.86267,-5.67582 z m 118.52121,5.19525 c 2.94238,3.36728 5.14525,6.45622 4.84584,6.86395 -0.5993,0.88377 -7.71685,0.83429 -10.67584,-0.14251 -2.66291,-0.90645 -3.46564,-2.7562 -2.6948,-6.9856 0.46147,-2.38739 2.1914,-5.9271 2.93281,-5.92195 0.14828,10e-4 2.65009,2.75053 5.59199,6.18611 z" />
  </g>
    <style>
        #circle4 {
        fill: #393939;
        }
        #svg_5 {
        fill:#ffffff;
        }
        @media (prefers-color-scheme: dark) {
        #circle4 {
        fill: #C6C6C6;
        }
        #svg_5 {
        fill: #393939
        }
        }
    </style>
</svg>
